<svg width="95" height="10" viewBox="0 0 95 10" fill="none" xmlns="http://www.w3.org/2000/svg">
<path d="M6.228 0.576V2.22H2.796V3.996H5.364V5.592H2.796V9H0.744V0.576H6.228ZM14.4444 2.22V3.924H17.1924V5.508H14.4444V7.356H17.5524V9H12.3924V0.576H17.5524V2.22H14.4444ZM29.2146 7.512H26.0706L25.5666 9H23.4186L26.4666 0.576H28.8426L31.8906 9H29.7186L29.2146 7.512ZM28.6866 5.928L27.6426 2.844L26.6106 5.928H28.6866ZM43.9642 0.576V2.22H41.7322V9H39.6802V2.22H37.4482V0.576H43.9642ZM52.0959 0.576V5.616C52.0959 6.12 52.2199 6.508 52.4679 6.78C52.7159 7.052 53.0799 7.188 53.5599 7.188C54.0399 7.188 54.4079 7.052 54.6639 6.78C54.9199 6.508 55.0479 6.12 55.0479 5.616V0.576H57.0999V5.604C57.0999 6.356 56.9399 6.992 56.6199 7.512C56.2999 8.032 55.8679 8.424 55.3239 8.688C54.7879 8.952 54.1879 9.084 53.5239 9.084C52.8599 9.084 52.2639 8.956 51.7359 8.7C51.2159 8.436 50.8039 8.044 50.4999 7.524C50.1959 6.996 50.0439 6.356 50.0439 5.604V0.576H52.0959ZM67.9228 9L66.1708 5.82H65.6788V9H63.6268V0.576H67.0708C67.7348 0.576 68.2988 0.692 68.7628 0.924C69.2348 1.156 69.5868 1.476 69.8188 1.884C70.0508 2.284 70.1668 2.732 70.1668 3.228C70.1668 3.788 70.0068 4.288 69.6868 4.728C69.3748 5.168 68.9108 5.48 68.2948 5.664L70.2388 9H67.9228ZM65.6788 4.368H66.9508C67.3268 4.368 67.6068 4.276 67.7908 4.092C67.9828 3.908 68.0788 3.648 68.0788 3.312C68.0788 2.992 67.9828 2.74 67.7908 2.556C67.6068 2.372 67.3268 2.28 66.9508 2.28H65.6788V4.368ZM78.5929 2.22V3.924H81.3409V5.508H78.5929V7.356H81.7009V9H76.5409V0.576H81.7009V2.22H78.5929ZM91.167 9.084C90.551 9.084 89.999 8.984 89.511 8.784C89.023 8.584 88.631 8.288 88.335 7.896C88.047 7.504 87.895 7.032 87.879 6.48H90.063C90.095 6.792 90.203 7.032 90.387 7.2C90.571 7.36 90.811 7.44 91.107 7.44C91.411 7.44 91.651 7.372 91.827 7.236C92.003 7.092 92.091 6.896 92.091 6.648C92.091 6.44 92.019 6.268 91.875 6.132C91.739 5.996 91.567 5.884 91.359 5.796C91.159 5.708 90.871 5.608 90.495 5.496C89.951 5.328 89.507 5.16 89.163 4.992C88.819 4.824 88.523 4.576 88.275 4.248C88.027 3.92 87.903 3.492 87.903 2.964C87.903 2.18 88.187 1.568 88.755 1.128C89.323 0.68 90.063 0.456 90.975 0.456C91.903 0.456 92.651 0.68 93.219 1.128C93.787 1.568 94.091 2.184 94.131 2.976H91.911C91.895 2.704 91.795 2.492 91.611 2.34C91.427 2.18 91.191 2.1 90.903 2.1C90.655 2.1 90.455 2.168 90.303 2.304C90.151 2.432 90.075 2.62 90.075 2.868C90.075 3.14 90.203 3.352 90.459 3.504C90.715 3.656 91.115 3.82 91.659 3.996C92.203 4.18 92.643 4.356 92.979 4.524C93.323 4.692 93.619 4.936 93.867 5.256C94.115 5.576 94.239 5.988 94.239 6.492C94.239 6.972 94.115 7.408 93.867 7.8C93.627 8.192 93.275 8.504 92.811 8.736C92.347 8.968 91.799 9.084 91.167 9.084Z" fill="#767E7E"/>
</svg>
