<svg width="87" height="10" viewBox="0 0 87 10" fill="none" xmlns="http://www.w3.org/2000/svg">
<path d="M0.396 4.776C0.396 3.944 0.576 3.204 0.936 2.556C1.296 1.9 1.796 1.392 2.436 1.032C3.084 0.664 3.816 0.48 4.632 0.48C5.632 0.48 6.488 0.743999 7.2 1.272C7.912 1.8 8.388 2.52 8.628 3.432H6.372C6.204 3.08 5.964 2.812 5.652 2.628C5.348 2.444 5 2.352 4.608 2.352C3.976 2.352 3.464 2.572 3.072 3.012C2.68 3.452 2.484 4.04 2.484 4.776C2.484 5.512 2.68 6.1 3.072 6.54C3.464 6.98 3.976 7.2 4.608 7.2C5 7.2 5.348 7.108 5.652 6.924C5.964 6.74 6.204 6.472 6.372 6.12H8.628C8.388 7.032 7.912 7.752 7.2 8.28C6.488 8.8 5.632 9.06 4.632 9.06C3.816 9.06 3.084 8.88 2.436 8.52C1.796 8.152 1.296 7.644 0.936 6.996C0.576 6.348 0.396 5.608 0.396 4.776ZM18.9546 9.084C18.1626 9.084 17.4346 8.9 16.7706 8.532C16.1146 8.164 15.5906 7.652 15.1986 6.996C14.8146 6.332 14.6226 5.588 14.6226 4.764C14.6226 3.94 14.8146 3.2 15.1986 2.544C15.5906 1.888 16.1146 1.376 16.7706 1.008C17.4346 0.64 18.1626 0.456 18.9546 0.456C19.7466 0.456 20.4706 0.64 21.1266 1.008C21.7906 1.376 22.3106 1.888 22.6866 2.544C23.0706 3.2 23.2626 3.94 23.2626 4.764C23.2626 5.588 23.0706 6.332 22.6866 6.996C22.3026 7.652 21.7826 8.164 21.1266 8.532C20.4706 8.9 19.7466 9.084 18.9546 9.084ZM18.9546 7.212C19.6266 7.212 20.1626 6.988 20.5626 6.54C20.9706 6.092 21.1746 5.5 21.1746 4.764C21.1746 4.02 20.9706 3.428 20.5626 2.988C20.1626 2.54 19.6266 2.316 18.9546 2.316C18.2746 2.316 17.7306 2.536 17.3226 2.976C16.9226 3.416 16.7226 4.012 16.7226 4.764C16.7226 5.508 16.9226 6.104 17.3226 6.552C17.7306 6.992 18.2746 7.212 18.9546 7.212ZM31.5061 0.576V5.616C31.5061 6.12 31.6301 6.508 31.8781 6.78C32.1261 7.052 32.4901 7.188 32.9701 7.188C33.4501 7.188 33.8181 7.052 34.0741 6.78C34.3301 6.508 34.4581 6.12 34.4581 5.616V0.576H36.5101V5.604C36.5101 6.356 36.3501 6.992 36.0301 7.512C35.7101 8.032 35.2781 8.424 34.7341 8.688C34.1981 8.952 33.5981 9.084 32.9341 9.084C32.2701 9.084 31.6741 8.956 31.1461 8.7C30.6261 8.436 30.2141 8.044 29.9101 7.524C29.6061 6.996 29.4541 6.356 29.4541 5.604V0.576H31.5061ZM47.333 9L45.581 5.82H45.089V9H43.037V0.576H46.481C47.145 0.576 47.709 0.692 48.173 0.924C48.645 1.156 48.997 1.476 49.229 1.884C49.461 2.284 49.577 2.732 49.577 3.228C49.577 3.788 49.417 4.288 49.097 4.728C48.785 5.168 48.321 5.48 47.705 5.664L49.649 9H47.333ZM45.089 4.368H46.361C46.737 4.368 47.017 4.276 47.201 4.092C47.393 3.908 47.489 3.648 47.489 3.312C47.489 2.992 47.393 2.74 47.201 2.556C47.017 2.372 46.737 2.28 46.361 2.28H45.089V4.368ZM58.999 9.084C58.383 9.084 57.831 8.984 57.343 8.784C56.855 8.584 56.463 8.288 56.167 7.896C55.879 7.504 55.727 7.032 55.711 6.48H57.895C57.927 6.792 58.035 7.032 58.219 7.2C58.403 7.36 58.643 7.44 58.939 7.44C59.243 7.44 59.483 7.372 59.659 7.236C59.835 7.092 59.923 6.896 59.923 6.648C59.923 6.44 59.851 6.268 59.707 6.132C59.571 5.996 59.399 5.884 59.191 5.796C58.991 5.708 58.703 5.608 58.327 5.496C57.783 5.328 57.339 5.16 56.995 4.992C56.651 4.824 56.355 4.576 56.107 4.248C55.859 3.92 55.735 3.492 55.735 2.964C55.735 2.18 56.019 1.568 56.587 1.128C57.155 0.68 57.895 0.456 58.807 0.456C59.735 0.456 60.483 0.68 61.051 1.128C61.619 1.568 61.923 2.184 61.963 2.976H59.743C59.727 2.704 59.627 2.492 59.443 2.34C59.259 2.18 59.023 2.1 58.735 2.1C58.487 2.1 58.287 2.168 58.135 2.304C57.983 2.432 57.907 2.62 57.907 2.868C57.907 3.14 58.035 3.352 58.291 3.504C58.547 3.656 58.947 3.82 59.491 3.996C60.035 4.18 60.475 4.356 60.811 4.524C61.155 4.692 61.451 4.936 61.699 5.256C61.947 5.576 62.071 5.988 62.071 6.492C62.071 6.972 61.947 7.408 61.699 7.8C61.459 8.192 61.107 8.504 60.643 8.736C60.179 8.968 59.631 9.084 58.999 9.084ZM70.4718 2.22V3.924H73.2198V5.508H70.4718V7.356H73.5798V9H68.4198V0.576H73.5798V2.22H70.4718ZM83.0459 9.084C82.4299 9.084 81.8779 8.984 81.3899 8.784C80.9019 8.584 80.5099 8.288 80.2139 7.896C79.9259 7.504 79.7739 7.032 79.7579 6.48H81.9419C81.9739 6.792 82.0819 7.032 82.2659 7.2C82.4499 7.36 82.6899 7.44 82.9859 7.44C83.2899 7.44 83.5299 7.372 83.7059 7.236C83.8819 7.092 83.9699 6.896 83.9699 6.648C83.9699 6.44 83.8979 6.268 83.7539 6.132C83.6179 5.996 83.4459 5.884 83.2379 5.796C83.0379 5.708 82.7499 5.608 82.3739 5.496C81.8299 5.328 81.3859 5.16 81.0419 4.992C80.6979 4.824 80.4019 4.576 80.1539 4.248C79.9059 3.92 79.7819 3.492 79.7819 2.964C79.7819 2.18 80.0659 1.568 80.6339 1.128C81.2019 0.68 81.9419 0.456 82.8539 0.456C83.7819 0.456 84.5299 0.68 85.0979 1.128C85.6659 1.568 85.9699 2.184 86.0099 2.976H83.7899C83.7739 2.704 83.6739 2.492 83.4899 2.34C83.3059 2.18 83.0699 2.1 82.7819 2.1C82.5339 2.1 82.3339 2.168 82.1819 2.304C82.0299 2.432 81.9539 2.62 81.9539 2.868C81.9539 3.14 82.0819 3.352 82.3379 3.504C82.5939 3.656 82.9939 3.82 83.5379 3.996C84.0819 4.18 84.5219 4.356 84.8579 4.524C85.2019 4.692 85.4979 4.936 85.7459 5.256C85.9939 5.576 86.1179 5.988 86.1179 6.492C86.1179 6.972 85.9939 7.408 85.7459 7.8C85.5059 8.192 85.1539 8.504 84.6899 8.736C84.2259 8.968 83.6779 9.084 83.0459 9.084Z" fill="#767E7E"/>
</svg>
